<svg xmlns="http://www.w3.org/2000/svg" xmlns:xlink="http://www.w3.org/1999/xlink" width="320" zoomAndPan="magnify" viewBox="0 0 240 239.999995" height="320" preserveAspectRatio="xMidYMid meet" version="1.0"><defs><g/><clipPath id="b23f8bf09d"><path d="M 19.949219 15.902344 L 220.050781 15.902344 L 220.050781 216 L 19.949219 216 Z M 19.949219 15.902344 " clip-rule="nonzero"/></clipPath><clipPath id="429aaab614"><path d="M 120 15.902344 C 64.746094 15.902344 19.949219 60.695312 19.949219 115.949219 C 19.949219 171.207031 64.746094 216 120 216 C 175.253906 216 220.050781 171.207031 220.050781 115.949219 C 220.050781 60.695312 175.253906 15.902344 120 15.902344 Z M 120 15.902344 " clip-rule="nonzero"/></clipPath></defs><g fill="#ffffff" fill-opacity="1"><g transform="translate(68.749861, 142.614669)"><g><path d="M 50.40625 -48.640625 L 50.40625 -2.765625 L 54.15625 -2.6875 L 54.15625 0 L 33.90625 0 L 33.90625 -2.6875 L 37.671875 -2.765625 L 37.671875 -24.09375 L 20.484375 -24.09375 L 20.484375 -2.765625 L 24.25 -2.6875 L 24.25 0 L 3.984375 0 L 3.984375 -2.6875 L 7.75 -2.765625 L 7.75 -48.640625 L 3.984375 -48.71875 L 3.984375 -51.40625 L 24.25 -51.40625 L 24.25 -48.71875 L 20.484375 -48.640625 L 20.484375 -26.921875 L 37.671875 -26.921875 L 37.671875 -48.640625 L 33.90625 -48.71875 L 33.90625 -51.40625 L 54.15625 -51.40625 L 54.15625 -48.71875 Z M 50.40625 -48.640625 "/></g></g></g><g fill="#ffffff" fill-opacity="1"><g transform="translate(124.443926, 142.614669)"><g><path d="M 32.140625 -7.671875 C 34.390625 -7.671875 36.5625 -8.128906 38.65625 -9.046875 C 40.757812 -9.972656 42.707031 -11.304688 44.5 -13.046875 L 46.484375 -10.8125 C 40.203125 -2.832031 32.992188 1.15625 24.859375 1.15625 C 20.203125 1.15625 16.144531 0.109375 12.6875 -1.984375 C 9.238281 -4.085938 6.566406 -7.054688 4.671875 -10.890625 C 2.785156 -14.722656 1.84375 -19.222656 1.84375 -24.390625 C 1.84375 -28.847656 2.695312 -33.160156 4.40625 -37.328125 C 6.125 -41.492188 8.3125 -44.828125 10.96875 -47.328125 C 13.582031 -49.023438 16.382812 -50.316406 19.375 -51.203125 C 22.363281 -52.097656 25.316406 -52.546875 28.234375 -52.546875 C 32.117188 -52.546875 35.6875 -51.710938 38.9375 -50.046875 C 42.1875 -48.390625 44.753906 -46.078125 46.640625 -43.109375 L 37.203125 -35.21875 C 34.546875 -39.914062 31.351562 -45.003906 27.625 -50.484375 C 25.375 -49.554688 23.328125 -47.96875 21.484375 -45.71875 C 19.640625 -43.46875 18.191406 -40.78125 17.140625 -37.65625 C 16.097656 -34.539062 15.578125 -31.296875 15.578125 -27.921875 C 15.578125 -21.484375 17.019531 -16.5 19.90625 -12.96875 C 22.800781 -9.4375 26.878906 -7.671875 32.140625 -7.671875 Z M 32.140625 -7.671875 "/></g></g></g><g clip-path="url(#b23f8bf09d)"><g clip-path="url(#429aaab614)"><path fill="#000000" d="M 19.949219 15.902344 L 220.050781 15.902344 L 220.050781 216 L 19.949219 216 Z M 19.949219 15.902344 " fill-opacity="1" fill-rule="nonzero"/></g></g><g fill="#ffffff" fill-opacity="1"><g transform="translate(42.760487, 160.925528)"><g><path d="M 20.203125 -42.765625 L 62.015625 -42.765625 L 62.015625 -83.171875 L 74.859375 -83.171875 L 74.859375 0 L 62.015625 0 L 62.015625 -40.390625 L 20.203125 -40.390625 L 20.203125 0 L 7.359375 0 L 7.359375 -83.171875 L 20.203125 -83.171875 Z M 20.203125 -42.765625 "/></g></g></g><g fill="#ffffff" fill-opacity="1"><g transform="translate(124.266883, 160.925528)"><g><path d="M 69.859375 -80.796875 L 51.09375 -80.796875 C 46.738281 -80.796875 42.554688 -80.101562 38.546875 -78.71875 C 34.546875 -77.332031 31.019531 -75.113281 27.96875 -72.0625 C 24.925781 -69.007812 22.515625 -64.988281 20.734375 -60 C 18.953125 -55.007812 18.0625 -48.867188 18.0625 -41.578125 C 18.0625 -34.296875 18.972656 -28.140625 20.796875 -23.109375 C 22.617188 -18.078125 25.09375 -14.035156 28.21875 -10.984375 C 31.34375 -7.941406 34.882812 -5.742188 38.84375 -4.390625 C 42.8125 -3.046875 46.894531 -2.375 51.09375 -2.375 L 72 -2.375 L 72 0 L 40.875 0 C 36.28125 0 31.820312 -0.8125 27.5 -2.4375 C 23.1875 -4.0625 19.347656 -6.554688 15.984375 -9.921875 C 12.617188 -13.285156 9.941406 -17.597656 7.953125 -22.859375 C 5.972656 -28.128906 4.984375 -34.367188 4.984375 -41.578125 C 4.984375 -48.867188 5.972656 -55.128906 7.953125 -60.359375 C 9.941406 -65.585938 12.617188 -69.882812 15.984375 -73.25 C 19.347656 -76.613281 23.1875 -79.109375 27.5 -80.734375 C 31.820312 -82.359375 36.28125 -83.171875 40.875 -83.171875 L 72.234375 -83.171875 L 72.234375 -80.796875 Z M 69.859375 -80.796875 "/></g></g></g><path fill="#000000" d="M 50.316406 111.019531 L 180.128906 111.019531 C 181.21875 111.019531 182.261719 111.453125 183.035156 112.222656 C 183.804688 112.992188 184.238281 114.039062 184.238281 115.128906 L 184.238281 123.34375 C 184.238281 124.433594 183.804688 125.476562 183.035156 126.25 C 182.261719 127.019531 181.21875 127.453125 180.128906 127.453125 L 50.316406 127.453125 C 48.046875 127.453125 46.207031 125.613281 46.207031 123.34375 L 46.207031 115.128906 C 46.207031 112.859375 48.046875 111.019531 50.316406 111.019531 Z M 50.316406 111.019531 " fill-opacity="1" fill-rule="nonzero"/><g fill="#ffffff" fill-opacity="1"><g transform="translate(53.207728, 122.136827)"><g><path d="M 7.15625 -7 L 7.15625 0 L 5.859375 0 L 5.859375 -3 L 2.234375 -3 L 2.234375 0 L 0.9375 0 L 0.9375 -7 L 2.234375 -7 L 2.234375 -4.109375 L 5.859375 -4.109375 L 5.859375 -7 Z M 7.15625 -7 "/></g></g></g><g fill="#ffffff" fill-opacity="1"><g transform="translate(67.295124, 122.136827)"><g><path d="M 5.484375 -1.625 L 1.984375 -1.625 L 1.296875 0 L -0.046875 0 L 3.09375 -7 L 4.375 -7 L 7.546875 0 L 6.1875 0 Z M 5.046875 -2.640625 L 3.734375 -5.703125 L 2.421875 -2.640625 Z M 5.046875 -2.640625 "/></g></g></g><g fill="#ffffff" fill-opacity="1"><g transform="translate(80.773424, 122.136827)"><g><path d="M 3.8125 -7 C 4.425781 -7 4.957031 -6.898438 5.40625 -6.703125 C 5.851562 -6.503906 6.195312 -6.21875 6.4375 -5.84375 C 6.675781 -5.46875 6.796875 -5.023438 6.796875 -4.515625 C 6.796875 -4.003906 6.675781 -3.5625 6.4375 -3.1875 C 6.195312 -2.8125 5.851562 -2.519531 5.40625 -2.3125 C 4.957031 -2.113281 4.425781 -2.015625 3.8125 -2.015625 L 2.234375 -2.015625 L 2.234375 0 L 0.9375 0 L 0.9375 -7 Z M 3.765625 -3.125 C 4.328125 -3.125 4.753906 -3.242188 5.046875 -3.484375 C 5.335938 -3.722656 5.484375 -4.066406 5.484375 -4.515625 C 5.484375 -4.960938 5.335938 -5.304688 5.046875 -5.546875 C 4.753906 -5.785156 4.328125 -5.90625 3.765625 -5.90625 L 2.234375 -5.90625 L 2.234375 -3.125 Z M 3.765625 -3.125 "/></g></g></g><g fill="#ffffff" fill-opacity="1"><g transform="translate(94.022056, 122.136827)"><g><path d="M 3.8125 -7 C 4.425781 -7 4.957031 -6.898438 5.40625 -6.703125 C 5.851562 -6.503906 6.195312 -6.21875 6.4375 -5.84375 C 6.675781 -5.46875 6.796875 -5.023438 6.796875 -4.515625 C 6.796875 -4.003906 6.675781 -3.5625 6.4375 -3.1875 C 6.195312 -2.8125 5.851562 -2.519531 5.40625 -2.3125 C 4.957031 -2.113281 4.425781 -2.015625 3.8125 -2.015625 L 2.234375 -2.015625 L 2.234375 0 L 0.9375 0 L 0.9375 -7 Z M 3.765625 -3.125 C 4.328125 -3.125 4.753906 -3.242188 5.046875 -3.484375 C 5.335938 -3.722656 5.484375 -4.066406 5.484375 -4.515625 C 5.484375 -4.960938 5.335938 -5.304688 5.046875 -5.546875 C 4.753906 -5.785156 4.328125 -5.90625 3.765625 -5.90625 L 2.234375 -5.90625 L 2.234375 -3.125 Z M 3.765625 -3.125 "/></g></g></g><g fill="#ffffff" fill-opacity="1"><g transform="translate(107.270688, 122.136827)"><g><path d="M 3.953125 -2.46875 L 3.953125 0 L 2.65625 0 L 2.65625 -2.453125 L -0.09375 -7 L 1.296875 -7 L 3.34375 -3.59375 L 5.421875 -7 L 6.703125 -7 Z M 3.953125 -2.46875 "/></g></g></g><g fill="#ffffff" fill-opacity="1"><g transform="translate(119.870286, 122.136827)"><g/></g></g><g fill="#ffffff" fill-opacity="1"><g transform="translate(128.625544, 122.136827)"><g><path d="M 4.1875 0.09375 C 3.476562 0.09375 2.835938 -0.0546875 2.265625 -0.359375 C 1.691406 -0.671875 1.242188 -1.097656 0.921875 -1.640625 C 0.597656 -2.191406 0.4375 -2.8125 0.4375 -3.5 C 0.4375 -4.1875 0.597656 -4.800781 0.921875 -5.34375 C 1.253906 -5.894531 1.703125 -6.320312 2.265625 -6.625 C 2.835938 -6.9375 3.476562 -7.09375 4.1875 -7.09375 C 4.757812 -7.09375 5.28125 -6.992188 5.75 -6.796875 C 6.226562 -6.597656 6.628906 -6.3125 6.953125 -5.9375 L 6.125 -5.140625 C 5.613281 -5.679688 4.988281 -5.953125 4.25 -5.953125 C 3.769531 -5.953125 3.335938 -5.847656 2.953125 -5.640625 C 2.578125 -5.429688 2.28125 -5.140625 2.0625 -4.765625 C 1.851562 -4.390625 1.75 -3.96875 1.75 -3.5 C 1.75 -3.03125 1.851562 -2.609375 2.0625 -2.234375 C 2.28125 -1.859375 2.578125 -1.566406 2.953125 -1.359375 C 3.335938 -1.148438 3.769531 -1.046875 4.25 -1.046875 C 4.988281 -1.046875 5.613281 -1.320312 6.125 -1.875 L 6.953125 -1.0625 C 6.628906 -0.6875 6.226562 -0.398438 5.75 -0.203125 C 5.28125 -0.00390625 4.757812 0.09375 4.1875 0.09375 Z M 4.1875 0.09375 "/></g></g></g><g fill="#ffffff" fill-opacity="1"><g transform="translate(141.884171, 122.136827)"><g><path d="M 4.203125 0.09375 C 3.492188 0.09375 2.851562 -0.0546875 2.28125 -0.359375 C 1.707031 -0.671875 1.253906 -1.101562 0.921875 -1.65625 C 0.597656 -2.207031 0.4375 -2.820312 0.4375 -3.5 C 0.4375 -4.175781 0.597656 -4.789062 0.921875 -5.34375 C 1.253906 -5.894531 1.707031 -6.320312 2.28125 -6.625 C 2.851562 -6.9375 3.492188 -7.09375 4.203125 -7.09375 C 4.921875 -7.09375 5.566406 -6.9375 6.140625 -6.625 C 6.710938 -6.320312 7.160156 -5.894531 7.484375 -5.34375 C 7.816406 -4.800781 7.984375 -4.1875 7.984375 -3.5 C 7.984375 -2.8125 7.816406 -2.191406 7.484375 -1.640625 C 7.160156 -1.097656 6.710938 -0.671875 6.140625 -0.359375 C 5.566406 -0.0546875 4.921875 0.09375 4.203125 0.09375 Z M 4.203125 -1.046875 C 4.671875 -1.046875 5.09375 -1.148438 5.46875 -1.359375 C 5.84375 -1.566406 6.132812 -1.859375 6.34375 -2.234375 C 6.5625 -2.609375 6.671875 -3.03125 6.671875 -3.5 C 6.671875 -3.96875 6.5625 -4.390625 6.34375 -4.765625 C 6.132812 -5.140625 5.84375 -5.429688 5.46875 -5.640625 C 5.09375 -5.847656 4.671875 -5.953125 4.203125 -5.953125 C 3.742188 -5.953125 3.328125 -5.847656 2.953125 -5.640625 C 2.578125 -5.429688 2.28125 -5.140625 2.0625 -4.765625 C 1.851562 -4.390625 1.75 -3.96875 1.75 -3.5 C 1.75 -3.03125 1.851562 -2.609375 2.0625 -2.234375 C 2.28125 -1.859375 2.578125 -1.566406 2.953125 -1.359375 C 3.328125 -1.148438 3.742188 -1.046875 4.203125 -1.046875 Z M 4.203125 -1.046875 "/></g></g></g><g fill="#ffffff" fill-opacity="1"><g transform="translate(156.291099, 122.136827)"><g><path d="M 0.9375 -7 L 4 -7 C 4.75 -7 5.410156 -6.851562 5.984375 -6.5625 C 6.566406 -6.269531 7.015625 -5.859375 7.328125 -5.328125 C 7.648438 -4.804688 7.8125 -4.195312 7.8125 -3.5 C 7.8125 -2.800781 7.648438 -2.1875 7.328125 -1.65625 C 7.015625 -1.132812 6.566406 -0.726562 5.984375 -0.4375 C 5.410156 -0.144531 4.75 0 4 0 L 0.9375 0 Z M 3.9375 -1.09375 C 4.445312 -1.09375 4.894531 -1.191406 5.28125 -1.390625 C 5.675781 -1.585938 5.976562 -1.867188 6.1875 -2.234375 C 6.40625 -2.597656 6.515625 -3.019531 6.515625 -3.5 C 6.515625 -3.976562 6.40625 -4.398438 6.1875 -4.765625 C 5.976562 -5.128906 5.675781 -5.410156 5.28125 -5.609375 C 4.894531 -5.804688 4.445312 -5.90625 3.9375 -5.90625 L 2.234375 -5.90625 L 2.234375 -1.09375 Z M 3.9375 -1.09375 "/></g></g></g><g fill="#ffffff" fill-opacity="1"><g transform="translate(170.538256, 122.136827)"><g><path d="M 6.1875 -1.09375 L 6.1875 0 L 0.9375 0 L 0.9375 -7 L 6.046875 -7 L 6.046875 -5.90625 L 2.234375 -5.90625 L 2.234375 -4.09375 L 5.625 -4.09375 L 5.625 -3.015625 L 2.234375 -3.015625 L 2.234375 -1.09375 Z M 6.1875 -1.09375 "/></g></g></g></svg>