<svg xmlns="http://www.w3.org/2000/svg" xmlns:xlink="http://www.w3.org/1999/xlink" width="500" zoomAndPan="magnify" viewBox="0 0 375 374.999991" height="500" preserveAspectRatio="xMidYMid meet" version="1.2"><defs><clipPath id="74f6eaf8bd"><path d="M 32.445312 173 L 135 173 L 135 210.902344 L 32.445312 210.902344 Z M 32.445312 173 "/></clipPath><clipPath id="f4077a0029"><path d="M 87 60.902344 L 139.695312 60.902344 L 139.695312 114 L 87 114 Z M 87 60.902344 "/></clipPath></defs><g id="144115c2ff"><path style=" stroke:none;fill-rule:nonzero;fill:#00bf63;fill-opacity:1;" d="M 251.476562 183.957031 L 171.234375 183.957031 C 170.527344 183.957031 169.957031 183.382812 169.957031 182.675781 C 169.957031 181.96875 170.527344 181.398438 171.234375 181.398438 L 251.476562 181.398438 C 252.183594 181.398438 252.753906 181.96875 252.753906 182.675781 C 252.753906 183.382812 252.183594 183.957031 251.476562 183.957031 Z M 251.476562 183.957031 "/><path style=" stroke:none;fill-rule:nonzero;fill:#00bf63;fill-opacity:1;" d="M 172.140625 183.582031 L 145.394531 210.328125 C 144.894531 210.828125 144.082031 210.828125 143.585938 210.328125 C 143.085938 209.828125 143.085938 209.019531 143.585938 208.519531 L 170.332031 181.773438 C 170.832031 181.273438 171.640625 181.273438 172.140625 181.773438 C 172.640625 182.269531 172.640625 183.082031 172.140625 183.582031 Z M 172.140625 183.582031 "/><path style=" stroke:none;fill-rule:nonzero;fill:#00bf63;fill-opacity:1;" d="M -15.992188 208.144531 L 171.234375 208.144531 C 171.941406 208.144531 172.515625 208.714844 172.515625 209.421875 C 172.515625 210.128906 171.941406 210.703125 171.234375 210.703125 L -15.992188 210.703125 C -16.699219 210.703125 -17.273438 210.128906 -17.273438 209.421875 C -17.273438 208.714844 -16.699219 208.144531 -15.992188 208.144531 Z M -15.992188 208.144531 "/><path style=" stroke:none;fill-rule:nonzero;fill:#00bf63;fill-opacity:1;" d="M 172.140625 208.519531 L 225.632812 262.011719 C 226.132812 262.511719 226.132812 263.320312 225.632812 263.820312 C 225.132812 264.320312 224.324219 264.320312 223.824219 263.820312 L 170.332031 210.328125 C 169.832031 209.828125 169.832031 209.019531 170.332031 208.519531 C 170.832031 208.019531 171.640625 208.019531 172.140625 208.519531 Z M 172.140625 208.519531 "/><path style=" stroke:none;fill-rule:nonzero;fill:#00bf63;fill-opacity:1;" d="M 224.730469 261.636719 L 278.222656 261.636719 C 278.929688 261.636719 279.503906 262.210938 279.503906 262.917969 C 279.503906 263.625 278.929688 264.195312 278.222656 264.195312 L 224.730469 264.195312 C 224.023438 264.195312 223.449219 263.625 223.449219 262.917969 C 223.449219 262.210938 224.023438 261.636719 224.730469 261.636719 Z M 224.730469 261.636719 "/><path style=" stroke:none;fill-rule:nonzero;fill:#00bf63;fill-opacity:1;" d="M 197.078125 235.265625 L 223.824219 208.519531 C 224.324219 208.019531 225.132812 208.019531 225.632812 208.519531 C 226.132812 209.019531 226.132812 209.828125 225.632812 210.328125 L 198.886719 237.074219 C 198.386719 237.574219 197.578125 237.574219 197.078125 237.074219 C 196.578125 236.574219 196.578125 235.765625 197.078125 235.265625 Z M 197.078125 235.265625 "/><path style=" stroke:none;fill-rule:nonzero;fill:#00bf63;fill-opacity:1;" d="M 224.730469 208.144531 L 304.96875 208.144531 C 305.675781 208.144531 306.25 208.714844 306.25 209.421875 C 306.25 210.128906 305.675781 210.703125 304.96875 210.703125 L 224.730469 210.703125 C 224.023438 210.703125 223.449219 210.128906 223.449219 209.421875 C 223.449219 208.714844 224.023438 208.144531 224.730469 208.144531 Z M 224.730469 208.144531 "/><path style=" stroke:none;fill-rule:nonzero;fill:#00bf63;fill-opacity:1;" d="M -15.992188 234.890625 L 171.234375 234.890625 C 171.941406 234.890625 172.515625 235.464844 172.515625 236.171875 C 172.515625 236.875 171.941406 237.449219 171.234375 237.449219 L -15.992188 237.449219 C -16.699219 237.449219 -17.273438 236.875 -17.273438 236.171875 C -17.273438 235.464844 -16.699219 234.890625 -15.992188 234.890625 Z M -15.992188 234.890625 "/><path style=" stroke:none;fill-rule:nonzero;fill:#00bf63;fill-opacity:1;" d="M 172.140625 235.265625 L 225.632812 288.757812 C 226.132812 289.257812 226.132812 290.070312 225.632812 290.566406 C 225.132812 291.066406 224.324219 291.066406 223.824219 290.566406 L 170.332031 237.074219 C 169.832031 236.574219 169.832031 235.765625 170.332031 235.265625 C 170.832031 234.765625 171.640625 234.765625 172.140625 235.265625 Z M 172.140625 235.265625 "/><path style=" stroke:none;fill-rule:nonzero;fill:#00bf63;fill-opacity:1;" d="M 224.730469 288.386719 L 331.71875 288.386719 C 332.421875 288.386719 332.996094 288.957031 332.996094 289.664062 C 332.996094 290.371094 332.421875 290.945312 331.71875 290.945312 L 224.730469 290.941406 C 224.023438 290.941406 223.449219 290.371094 223.449219 289.664062 C 223.449219 288.957031 224.023438 288.386719 224.730469 288.386719 Z M 224.730469 288.386719 "/><path style=" stroke:none;fill-rule:nonzero;fill:#00bf63;fill-opacity:1;" d="M 277.320312 288.757812 L 304.066406 262.011719 C 304.566406 261.511719 305.375 261.511719 305.875 262.011719 C 306.375 262.511719 306.375 263.320312 305.875 263.820312 L 279.128906 290.566406 C 278.628906 291.066406 277.816406 291.066406 277.320312 290.566406 C 276.820312 290.070312 276.820312 289.257812 277.320312 288.757812 Z M 277.320312 288.757812 "/><path style=" stroke:none;fill-rule:nonzero;fill:#00bf63;fill-opacity:1;" d="M 304.96875 261.636719 L 358.464844 261.636719 C 359.171875 261.636719 359.742188 262.210938 359.742188 262.917969 C 359.742188 263.625 359.171875 264.195312 358.464844 264.195312 L 304.96875 264.195312 C 304.261719 264.195312 303.691406 263.625 303.691406 262.917969 C 303.691406 262.210938 304.261719 261.636719 304.96875 261.636719 Z M 304.96875 261.636719 "/><path style=" stroke:none;fill-rule:nonzero;fill:#00bf63;fill-opacity:1;" d="M -15.992188 261.636719 L 90.996094 261.636719 C 91.699219 261.636719 92.273438 262.210938 92.273438 262.917969 C 92.273438 263.625 91.699219 264.195312 90.996094 264.195312 L -15.992188 264.195312 C -16.699219 264.195312 -17.273438 263.625 -17.273438 262.917969 C -17.273438 262.210938 -16.699219 261.636719 -15.992188 261.636719 Z M -15.992188 261.636719 "/><path style=" stroke:none;fill-rule:nonzero;fill:#00bf63;fill-opacity:1;" d="M 91.898438 262.011719 L 118.644531 288.757812 C 119.144531 289.257812 119.144531 290.070312 118.644531 290.566406 C 118.144531 291.066406 117.335938 291.066406 116.835938 290.566406 L 90.089844 263.820312 C 89.589844 263.320312 89.589844 262.511719 90.089844 262.011719 C 90.589844 261.511719 91.398438 261.511719 91.898438 262.011719 Z M 91.898438 262.011719 "/><path style=" stroke:none;fill-rule:nonzero;fill:#00bf63;fill-opacity:1;" d="M 117.742188 288.382812 L 171.234375 288.382812 C 171.941406 288.382812 172.515625 288.957031 172.515625 289.664062 C 172.515625 290.371094 171.941406 290.941406 171.234375 290.941406 L 117.742188 290.941406 C 117.035156 290.941406 116.460938 290.371094 116.460938 289.664062 C 116.460938 288.957031 117.035156 288.386719 117.742188 288.382812 Z M 117.742188 288.382812 "/><path style=" stroke:none;fill-rule:nonzero;fill:#00bf63;fill-opacity:1;" d="M 311.242188 209.808594 C 311.03125 213.273438 308.050781 215.910156 304.585938 215.699219 C 301.121094 215.484375 298.484375 212.503906 298.695312 209.039062 C 298.910156 205.570312 301.890625 202.9375 305.355469 203.148438 C 308.820312 203.363281 311.457031 206.34375 311.242188 209.808594 Z M 311.242188 209.808594 "/><path style=" stroke:none;fill-rule:nonzero;fill:#00bf63;fill-opacity:1;" d="M 284.496094 263.300781 L 284.496094 263.304688 C 284.285156 266.769531 281.300781 269.402344 277.835938 269.191406 C 274.371094 268.976562 271.734375 265.996094 271.949219 262.53125 C 272.164062 259.066406 275.144531 256.429688 278.609375 256.644531 C 282.074219 256.855469 284.710938 259.835938 284.496094 263.300781 Z M 284.496094 263.300781 "/><path style=" stroke:none;fill-rule:nonzero;fill:#00bf63;fill-opacity:1;" d="M 337.992188 290.050781 C 337.777344 293.515625 334.796875 296.152344 331.332031 295.9375 C 327.867188 295.726562 325.230469 292.742188 325.441406 289.277344 C 325.65625 285.8125 328.636719 283.175781 332.101562 283.390625 C 335.566406 283.601562 338.203125 286.585938 337.992188 290.050781 Z M 337.992188 290.050781 "/><path style=" stroke:none;fill-rule:nonzero;fill:#00bf63;fill-opacity:1;" d="M 364.738281 263.300781 L 364.738281 263.304688 C 364.523438 266.769531 361.542969 269.402344 358.078125 269.191406 C 354.613281 268.976562 351.976562 265.996094 352.191406 262.53125 C 352.402344 259.066406 355.382812 256.429688 358.851562 256.644531 C 362.316406 256.855469 364.949219 259.835938 364.738281 263.300781 Z M 364.738281 263.300781 "/><path style=" stroke:none;fill-rule:nonzero;fill:#00bf63;fill-opacity:1;" d="M 264.953125 183.480469 C 264.691406 187.214844 261.449219 190.027344 257.714844 189.761719 C 253.980469 189.496094 251.167969 186.253906 251.433594 182.519531 C 251.695312 178.789062 254.9375 175.976562 258.671875 176.238281 C 262.40625 176.503906 265.21875 179.746094 264.953125 183.480469 M 262.261719 183.289062 C 262.421875 181.042969 260.730469 179.089844 258.480469 178.929688 C 256.234375 178.773438 254.28125 180.464844 254.125 182.710938 C 253.964844 184.960938 255.65625 186.910156 257.90625 187.070312 C 260.152344 187.230469 262.105469 185.535156 262.261719 183.289062 Z M 262.261719 183.289062 "/><path style=" stroke:none;fill-rule:nonzero;fill:#00bf63;fill-opacity:1;" d="M 184.464844 290.480469 C 184.203125 294.214844 180.960938 297.027344 177.226562 296.761719 C 173.492188 296.496094 170.679688 293.253906 170.945312 289.519531 C 171.207031 285.785156 174.449219 282.972656 178.183594 283.238281 C 181.917969 283.503906 184.730469 286.746094 184.464844 290.480469 M 181.773438 290.289062 C 181.933594 288.042969 180.242188 286.089844 177.992188 285.929688 C 175.746094 285.769531 173.796875 287.464844 173.636719 289.710938 C 173.476562 291.960938 175.167969 293.910156 177.417969 294.070312 C 179.664062 294.230469 181.617188 292.535156 181.773438 290.289062 Z M 181.773438 290.289062 "/><g clip-rule="nonzero" clip-path="url(#74f6eaf8bd)"><path style=" stroke:none;fill-rule:nonzero;fill:#00bf63;fill-opacity:1;" d="M 83.300781 173.375 C 55.257812 173.375 32.445312 188.984375 32.445312 208.171875 C 32.445312 208.527344 32.515625 208.867188 32.648438 209.195312 C 32.785156 209.523438 32.980469 209.8125 33.230469 210.0625 C 33.480469 210.3125 33.769531 210.507812 34.097656 210.644531 C 34.425781 210.777344 34.769531 210.847656 35.121094 210.847656 L 131.480469 210.847656 C 131.832031 210.847656 132.175781 210.777344 132.503906 210.644531 C 132.832031 210.507812 133.121094 210.3125 133.371094 210.0625 C 133.621094 209.8125 133.816406 209.523438 133.953125 209.195312 C 134.085938 208.867188 134.15625 208.527344 134.15625 208.171875 C 134.15625 188.984375 111.34375 173.375 83.300781 173.375 Z M 83.300781 173.375 "/></g><g clip-rule="nonzero" clip-path="url(#f4077a0029)"><path style=" stroke:none;fill-rule:nonzero;fill:#00bf63;fill-opacity:1;" d="M 136.847656 60.960938 C 135.671875 60.914062 109.226562 60.957031 95.195312 74.992188 C 85.164062 85.023438 84.386719 98.25 93.300781 107.167969 C 93.855469 107.71875 94.4375 108.242188 95.046875 108.734375 C 99.246094 99.304688 105.25 91.453125 113.863281 87.480469 C 114.1875 87.332031 114.523438 87.25 114.878906 87.234375 C 115.234375 87.222656 115.578125 87.277344 115.910156 87.398438 C 116.242188 87.519531 116.539062 87.703125 116.800781 87.945312 C 117.0625 88.183594 117.265625 88.464844 117.414062 88.789062 C 117.566406 89.113281 117.644531 89.449219 117.660156 89.804688 C 117.675781 90.160156 117.621094 90.503906 117.496094 90.835938 C 117.375 91.167969 117.191406 91.464844 116.949219 91.726562 C 116.710938 91.988281 116.429688 92.191406 116.105469 92.339844 C 108.601562 95.804688 103.324219 102.914062 99.605469 111.570312 C 102.199219 112.757812 104.921875 113.355469 107.773438 113.359375 C 109.441406 113.300781 111.089844 113.082031 112.714844 112.699219 C 114.339844 112.316406 115.914062 111.777344 117.429688 111.085938 C 118.949219 110.390625 120.386719 109.554688 121.742188 108.578125 C 123.09375 107.597656 124.339844 106.5 125.472656 105.273438 C 139.515625 91.234375 139.515625 64.742188 139.507812 63.621094 C 139.507812 63.269531 139.4375 62.929688 139.300781 62.605469 C 139.167969 62.277344 138.972656 61.992188 138.726562 61.742188 C 138.476562 61.492188 138.1875 61.300781 137.863281 61.164062 C 137.539062 61.03125 137.199219 60.960938 136.847656 60.960938 Z M 136.847656 60.960938 "/></g><path style=" stroke:none;fill-rule:nonzero;fill:#00bf63;fill-opacity:1;" d="M 49.191406 123.703125 C 48.914062 123.492188 48.683594 123.238281 48.507812 122.9375 C 48.328125 122.636719 48.210938 122.316406 48.160156 121.972656 C 48.105469 121.625 48.121094 121.285156 48.203125 120.945312 C 48.28125 120.605469 48.425781 120.292969 48.625 120.007812 C 48.828125 119.726562 49.078125 119.492188 49.375 119.304688 C 49.667969 119.117188 49.988281 118.992188 50.332031 118.929688 C 50.671875 118.871094 51.015625 118.875 51.359375 118.945312 C 51.699219 119.019531 52.015625 119.152344 52.304688 119.347656 C 57.292969 123.328125 61.289062 128.136719 64.296875 133.765625 C 64.972656 133.289062 65.601562 132.757812 66.1875 132.171875 C 66.921875 131.492188 67.558594 130.734375 68.101562 129.898438 C 68.648438 129.058594 69.082031 128.167969 69.40625 127.222656 C 69.730469 126.28125 69.9375 125.308594 70.023438 124.316406 C 70.109375 123.320312 70.070312 122.328125 69.914062 121.34375 C 69.523438 119.425781 68.847656 117.613281 67.886719 115.910156 C 66.929688 114.203125 65.730469 112.683594 64.296875 111.355469 C 62.515625 109.675781 60.589844 108.183594 58.515625 106.878906 C 56.445312 105.574219 54.265625 104.484375 51.980469 103.605469 C 49.695312 102.726562 47.347656 102.078125 44.9375 101.660156 C 42.523438 101.242188 40.09375 101.058594 37.648438 101.113281 C 37.320312 101.132812 37.003906 101.207031 36.707031 101.34375 C 36.40625 101.476562 36.140625 101.660156 35.90625 101.894531 C 35.675781 102.125 35.492188 102.390625 35.355469 102.691406 C 35.222656 102.992188 35.144531 103.304688 35.128906 103.632812 C 35.070312 106.082031 35.253906 108.511719 35.671875 110.921875 C 36.09375 113.335938 36.742188 115.683594 37.617188 117.96875 C 38.496094 120.253906 39.589844 122.433594 40.890625 124.503906 C 42.195312 126.574219 43.6875 128.5 45.367188 130.28125 C 46.699219 131.71875 48.21875 132.914062 49.921875 133.875 C 51.628906 134.832031 53.441406 135.507812 55.355469 135.898438 C 56.015625 136.003906 56.679688 136.058594 57.347656 136.058594 C 57.984375 136.046875 58.613281 135.980469 59.242188 135.863281 C 56.699219 131.144531 53.347656 127.089844 49.191406 123.703125 Z M 49.191406 123.703125 "/><path style=" stroke:none;fill-rule:nonzero;fill:#00bf63;fill-opacity:1;" d="M 83.296875 178.726562 C 82.996094 178.726562 82.703125 178.679688 82.417969 178.578125 C 82.136719 178.480469 81.875 178.335938 81.636719 178.148438 C 81.402344 177.964844 81.203125 177.742188 81.042969 177.488281 C 80.878906 177.234375 80.765625 176.960938 80.695312 176.667969 C 80.589844 176.21875 70 131.988281 52.304688 119.347656 C 52.023438 119.136719 51.792969 118.882812 51.613281 118.582031 C 51.433594 118.28125 51.316406 117.960938 51.265625 117.613281 C 51.210938 117.269531 51.222656 116.925781 51.304688 116.585938 C 51.386719 116.246094 51.527344 115.933594 51.730469 115.648438 C 51.933594 115.363281 52.183594 115.128906 52.480469 114.941406 C 52.773438 114.753906 53.09375 114.632812 53.4375 114.570312 C 53.78125 114.507812 54.125 114.515625 54.46875 114.585938 C 54.808594 114.660156 55.125 114.792969 55.414062 114.992188 C 66.929688 123.21875 75.386719 142.414062 80.441406 157 C 81.296875 133.085938 86.65625 94.144531 111.621094 82.621094 C 111.945312 82.472656 112.28125 82.390625 112.636719 82.375 C 112.992188 82.363281 113.335938 82.417969 113.667969 82.539062 C 114 82.664062 114.296875 82.84375 114.558594 83.085938 C 114.816406 83.328125 115.023438 83.609375 115.171875 83.929688 C 115.320312 84.253906 115.402344 84.589844 115.414062 84.945312 C 115.429688 85.300781 115.375 85.644531 115.253906 85.976562 C 115.128906 86.308594 114.949219 86.605469 114.707031 86.867188 C 114.46875 87.128906 114.1875 87.332031 113.863281 87.480469 C 81.152344 102.578125 85.921875 175.132812 85.96875 175.863281 C 85.996094 176.234375 85.945312 176.59375 85.820312 176.941406 C 85.699219 177.292969 85.507812 177.605469 85.257812 177.875 C 85.003906 178.148438 84.707031 178.355469 84.367188 178.503906 C 84.023438 178.652344 83.667969 178.726562 83.296875 178.726562 Z M 83.296875 178.726562 "/><g style="fill:#00bf63;fill-opacity:1;"><g transform="translate(93.902687, 167.004063)"><path style="stroke:none" d="M 3.125 -42.953125 L 15.5625 -42.953125 C 21.53125 -42.953125 26.628906 -40.910156 30.859375 -36.828125 C 35.097656 -32.753906 37.21875 -27.644531 37.21875 -21.5 C 37.21875 -15.320312 35.109375 -10.191406 30.890625 -6.109375 C 26.679688 -2.035156 21.570312 0 15.5625 0 L 3.125 0 Z M 12.90625 -8.75 L 14.421875 -8.75 C 17.992188 -8.75 20.914062 -9.953125 23.1875 -12.359375 C 25.46875 -14.773438 26.625 -17.804688 26.65625 -21.453125 C 26.65625 -25.097656 25.515625 -28.132812 23.234375 -30.5625 C 20.960938 -32.988281 18.023438 -34.203125 14.421875 -34.203125 L 12.90625 -34.203125 Z M 12.90625 -8.75 "/></g></g><g style="fill:#00bf63;fill-opacity:1;"><g transform="translate(132.319058, 167.004063)"><path style="stroke:none" d="M 30.140625 -12.078125 L 10.78125 -12.078125 C 10.78125 -10.203125 11.382812 -8.8125 12.59375 -7.90625 C 13.8125 -7.007812 15.132812 -6.5625 16.5625 -6.5625 C 18.050781 -6.5625 19.226562 -6.757812 20.09375 -7.15625 C 20.957031 -7.550781 21.945312 -8.34375 23.0625 -9.53125 L 29.734375 -6.203125 C 26.953125 -1.546875 22.332031 0.78125 15.875 0.78125 C 11.851562 0.78125 8.398438 -0.597656 5.515625 -3.359375 C 2.640625 -6.117188 1.203125 -9.441406 1.203125 -13.328125 C 1.203125 -17.210938 2.640625 -20.539062 5.515625 -23.3125 C 8.398438 -26.09375 11.851562 -27.484375 15.875 -27.484375 C 20.113281 -27.484375 23.5625 -26.257812 26.21875 -23.8125 C 28.875 -21.363281 30.203125 -17.867188 30.203125 -13.328125 C 30.203125 -12.703125 30.179688 -12.285156 30.140625 -12.078125 Z M 11.03125 -17.1875 L 21.1875 -17.1875 C 20.976562 -18.570312 20.429688 -19.632812 19.546875 -20.375 C 18.660156 -21.125 17.523438 -21.5 16.140625 -21.5 C 14.609375 -21.5 13.390625 -21.097656 12.484375 -20.296875 C 11.585938 -19.503906 11.101562 -18.46875 11.03125 -17.1875 Z M 11.03125 -17.1875 "/></g></g><g style="fill:#00bf63;fill-opacity:1;"><g transform="translate(163.708037, 167.004063)"><path style="stroke:none" d="M 9.890625 -26.703125 L 16.40625 -12.1875 L 22.90625 -26.703125 L 33.84375 -26.703125 L 19.53125 0 L 13.28125 0 L -1.046875 -26.703125 Z M 9.890625 -26.703125 "/></g></g><g style="fill:#00bf63;fill-opacity:1;"><g transform="translate(196.502499, 167.004063)"><path style="stroke:none" d="M 12.90625 -42.953125 L 12.90625 -8.59375 L 27.703125 -8.59375 L 27.703125 0 L 3.125 0 L 3.125 -42.953125 Z M 12.90625 -42.953125 "/></g></g><g style="fill:#00bf63;fill-opacity:1;"><g transform="translate(225.913401, 167.004063)"><path style="stroke:none" d="M 4.9375 -3.296875 C 2.445312 -6.023438 1.203125 -9.367188 1.203125 -13.328125 C 1.203125 -17.285156 2.445312 -20.632812 4.9375 -23.375 C 7.4375 -26.113281 10.613281 -27.484375 14.46875 -27.484375 C 18.007812 -27.484375 20.925781 -26.375 23.21875 -24.15625 L 23.21875 -26.703125 L 32.4375 -26.703125 L 32.4375 0 L 23.328125 0 L 23.328125 -3.015625 L 23.21875 -3.015625 C 20.925781 -0.484375 18.007812 0.78125 14.46875 0.78125 C 10.613281 0.78125 7.4375 -0.578125 4.9375 -3.296875 Z M 12.78125 -17.859375 C 11.582031 -16.679688 10.984375 -15.171875 10.984375 -13.328125 C 10.984375 -11.484375 11.554688 -9.976562 12.703125 -8.8125 C 13.847656 -7.65625 15.359375 -7.078125 17.234375 -7.078125 C 19.035156 -7.078125 20.515625 -7.664062 21.671875 -8.84375 C 22.835938 -10.03125 23.421875 -11.523438 23.421875 -13.328125 C 23.421875 -15.171875 22.820312 -16.679688 21.625 -17.859375 C 20.425781 -19.035156 18.960938 -19.625 17.234375 -19.625 C 15.460938 -19.625 13.976562 -19.035156 12.78125 -17.859375 Z M 12.78125 -17.859375 "/></g></g><g style="fill:#00bf63;fill-opacity:1;"><g transform="translate(261.466759, 167.004063)"><path style="stroke:none" d="M 30.609375 -23.375 C 33.109375 -20.632812 34.359375 -17.285156 34.359375 -13.328125 C 34.359375 -9.367188 33.109375 -6.023438 30.609375 -3.296875 C 28.109375 -0.578125 24.929688 0.78125 21.078125 0.78125 C 17.546875 0.78125 14.632812 -0.484375 12.34375 -3.015625 L 12.234375 -3.015625 L 12.234375 0 L 3.125 0 L 3.125 -44.78125 L 12.34375 -44.78125 L 12.34375 -24.15625 C 14.632812 -26.375 17.546875 -27.484375 21.078125 -27.484375 C 24.929688 -27.484375 28.109375 -26.113281 30.609375 -23.375 Z M 22.859375 -8.8125 C 24.003906 -9.976562 24.578125 -11.484375 24.578125 -13.328125 C 24.578125 -15.171875 23.976562 -16.679688 22.78125 -17.859375 C 21.582031 -19.035156 20.097656 -19.625 18.328125 -19.625 C 16.585938 -19.625 15.117188 -19.035156 13.921875 -17.859375 C 12.722656 -16.679688 12.125 -15.171875 12.125 -13.328125 C 12.125 -11.523438 12.707031 -10.03125 13.875 -8.84375 C 15.039062 -7.664062 16.523438 -7.078125 18.328125 -7.078125 C 20.203125 -7.078125 21.710938 -7.65625 22.859375 -8.8125 Z M 22.859375 -8.8125 "/></g></g></g></svg>